<?xml version="1.0" encoding="utf-8"?>
<!DOCTYPE svg PUBLIC "-//W3C//DTD SVG 1.1//EN" "http://www.w3.org/Graphics/SVG/1.1/DTD/svg11.dtd"><svg width="960" height="500" xmlns="http://www.w3.org/2000/svg" class="#svg" style="fill: #fff;"><g transform="translate(60,20)"><g class="x axis" transform="translate(0,450)"><g class="tick" style="opacity: 1;" transform="translate(244,0)"><line y2="5" x2="0" style="stroke: lightgrey;"></line><text y="15" x="0" dy=".71em" style="text-anchor: middle; fill: #696969;">A1</text></g><g class="tick" style="opacity: 1;" transform="translate(618,0)"><line y2="5" x2="0" style="stroke: lightgrey;"></line><text y="15" x="0" dy=".71em" style="text-anchor: middle; fill: #696969;">A2</text></g><path class="domain" d="M0,0V0H862V0" style="stroke: lightgrey;"></path></g><g class="y axis left-side"><g class="tick" style="opacity: 1;" transform="translate(0,450)"><line x2="862" y2="0" style="stroke: lightgrey;"></line><text x="-3" y="0" dy=".32em" style="text-anchor: end; fill: #696969;">0</text></g><g class="tick" style="opacity: 1;" transform="translate(0,225)"><line x2="862" y2="0" style="stroke: lightgrey;"></line><text x="-3" y="0" dy=".32em" style="text-anchor: end; fill: #696969;">1000</text></g><g class="tick" style="opacity: 1;" transform="translate(0,0)"><line x2="862" y2="0" style="stroke: lightgrey;"></line><text x="-3" y="0" dy=".32em" style="text-anchor: end; fill: #696969;">2000</text></g><path class="domain" d="M0,0H0V450H0" style="stroke: lightgrey;"></path></g><g class="y axis right-side" transform="translate(862,0)"><g class="tick" style="opacity: 1;" transform="translate(0,450)"><line x2="0" y2="0" style="stroke: lightgrey;"></line><text x="3" y="0" dy=".32em" style="text-anchor: start; fill: #696969;">0%</text></g><g class="tick" style="opacity: 1;" transform="translate(0,385.7142857142857)"><line x2="0" y2="0" style="stroke: lightgrey;"></line><text x="3" y="0" dy=".32em" style="text-anchor: start; fill: #696969;">10%</text></g><g class="tick" style="opacity: 1;" transform="translate(0,321.42857142857144)"><line x2="0" y2="0" style="stroke: lightgrey;"></line><text x="3" y="0" dy=".32em" style="text-anchor: start; fill: #696969;">20%</text></g><g class="tick" style="opacity: 1;" transform="translate(0,257.14285714285717)"><line x2="0" y2="0" style="stroke: lightgrey;"></line><text x="3" y="0" dy=".32em" style="text-anchor: start; fill: #696969;">30%</text></g><g class="tick" style="opacity: 1;" transform="translate(0,192.85714285714283)"><line x2="0" y2="0" style="stroke: lightgrey;"></line><text x="3" y="0" dy=".32em" style="text-anchor: start; fill: #696969;">40%</text></g><g class="tick" style="opacity: 1;" transform="translate(0,128.57142857142856)"><line x2="0" y2="0" style="stroke: lightgrey;"></line><text x="3" y="0" dy=".32em" style="text-anchor: start; fill: #696969;">50%</text></g><g class="tick" style="opacity: 1;" transform="translate(0,64.28571428571433)"><line x2="0" y2="0" style="stroke: lightgrey;"></line><text x="3" y="0" dy=".32em" style="text-anchor: start; fill: #696969;">60%</text></g><path class="domain" d="M0,0H0V450H0" style="stroke: lightgrey;"></path></g><g class="all" transform="translate(497,5)"><g class="final-budget" style="fill: #ffdc02;"><rect x="0" y="0" width="30" height="10" style="opacity: 0.7; fill: #ffdc02;"></rect><text x="35" y="10" style="fill: #696969;">累計追加</text></g><g class="init-budget" style="fill: #82C140;"><rect x="100" y="0" width="30" height="10" style="opacity: 0.7; fill: #82C140;"></rect><text x="135" y="10" text-anchor="start" style="fill: #696969;">年初設定</text></g><g class="accumulative-budget" style="fill: #5e7b3d;"><rect x="200" y="0" transform="rotate(45,205,5)" width="10" height="10" style="opacity: 0.7; fill: #5e7b3d;"></rect><text x="215" y="10" style="fill: #696969;">累計預算</text></g><g class="additional-rate" style="fill: none; stroke: #20A8B2; stroke-width: 2;"><line x1="275" y1="4" x2="315" y2="4" style="fill: none; stroke: #20A8B2; stroke-width: 2;"></line><circle cx="295" cy="4" r="6" class="additional-rate-circle" style="fill: #4C9FB2; stroke: #4C9FB2; stroke-width: 3px;"></circle><text x="320" y="10" style="fill: #696969; stroke: none;">追加%</text></g></g><g class="final-budget-group"><rect class="final-budget A1" x="113" width="262" y="344.25" height="105.75" style="opacity: 0.7; fill: #ffdc02;"></rect><rect class="final-budget A2" x="487" width="262" y="129.825" height="320.175" style="opacity: 0.7; fill: #ffdc02;"></rect></g><g class="init-budget-group"><rect class="init-budget" x="113" width="262" y="379.125" height="70.875" style="opacity: 0.7; fill: #82C140;"></rect><rect class="init-budget" x="487" width="262" y="244.79999999999998" height="205.20000000000002" style="opacity: 0.7; fill: #82C140;"></rect></g><path class="additional-rate" transform="translate(131,0)" d="M113,135L487,90" style="fill: none; stroke: #20A8B2; stroke-width: 2;"></path><g class="additional-rate-circles"><circle transform="translate(131,0)" class="additional-rate-circle is-over" cx="113" cy="135" r="5" style="fill: #FF4D4D; stroke: #FF4D4D; stroke-width: 3px;"></circle><circle transform="translate(131,0)" class="additional-rate-circle is-over" cx="487" cy="90" r="5" style="fill: #FF4D4D; stroke: #FF4D4D; stroke-width: 3px;"></circle></g><g class="accumulative-budgets"><rect class="accumulative-budget" transform="rotate(45,244,344.25)" x="240" width="8" y="340.25" height="8" style="opacity: 0.7; fill: #5e7b3d;"></rect><rect class="accumulative-budget" transform="rotate(45,618,129.825)" x="614" width="8" y="125.82499999999999" height="8" style="opacity: 0.7; fill: #5e7b3d;"></rect></g><g class="additional-rate-text" style="fill: #4C9FB2; font-weight: bolder;"><text class="additional-rate-text is-over" x="244" y="124" text-anchor="middle" style="fill: #FF4D4D; font-weight: bolder;">49%</text><text class="additional-rate-text is-over" x="618" y="79" text-anchor="middle" style="fill: #FF4D4D; font-weight: bolder;">56%</text></g><g class="final-budget-text" style="cursor: pointer;"><text class="final-budget-text positive" x="244" y="367.6875" text-anchor="middle" style="fill: #696969; cursor: pointer;">155</text><text class="final-budget-text positive" x="618" y="193.3125" text-anchor="middle" style="fill: #696969; cursor: pointer;">511</text></g><g class="init-budget-text"><text class="positive" x="244" y="420.5625" text-anchor="middle" style="fill: #696969;">315</text><text class="positive" x="618" y="353.4" text-anchor="middle" style="fill: #696969;">912</text></g><g class="accumulative-budget-text"><text class="accumulative-budget positive" x="244" y="332.25" text-decoration="underline" text-anchor="middle" style="fill: #5e7b3d;">470</text><text class="accumulative-budget positive" x="618" y="117.82499999999999" text-decoration="underline" text-anchor="middle" style="fill: #5e7b3d;">1423</text></g></g></svg>